<svg width="230" height="37" viewBox="0 0 230 37" fill="none" xmlns="http://www.w3.org/2000/svg">
<path fill-rule="evenodd" clip-rule="evenodd" d="M16.0389 3.79373L21.3475 3.79373C23.233 3.79373 24.7219 4.28819 25.8144 5.28564C26.9149 6.27457 27.4571 7.61303 27.4571 9.30103C27.4571 10.1365 27.3195 10.8952 27.0525 11.5602C27.4733 12.8049 27.6837 14.1519 27.6837 15.5841C27.6837 16.0615 27.6594 16.5304 27.6109 16.9908C28.7842 16.2491 29.7229 15.3028 30.4189 14.1348C31.2605 12.7367 31.6732 11.1254 31.6732 9.30103C31.6732 7.47663 31.2524 5.86536 30.4189 4.46722C29.5773 3.06908 28.3958 1.96933 26.8583 1.185C25.3208 0.400684 23.5243 0 21.4607 0L6.40108 0L6.40108 3.76815L15.076 3.76815C15.3997 3.76815 15.7234 3.77668 16.0389 3.79373ZM6.54647 14.9016V18.576L14.9543 18.576C16.241 18.5675 17.2201 18.2691 17.8675 17.6808C18.2479 17.3398 18.6767 16.7857 18.6767 15.5751C18.6767 15.2767 18.6525 15.1233 18.6039 14.9016L6.54647 14.9016ZM20.4734 23.6911C18.9439 24.4839 17.1394 24.8761 15.0759 24.8761L4.14323 24.8761L4.14323 36.854H0L0 6.27401L15.0597 6.27401C17.1232 6.27401 18.9197 6.67469 20.4572 7.45901C21.9947 8.24334 23.1762 9.34309 24.0178 10.7412C24.5762 11.679 24.9484 12.702 25.1345 13.8188C25.1831 14.0916 25.2155 14.373 25.2397 14.6628V14.7225C25.2425 14.7634 25.2462 14.8033 25.2499 14.8429L25.2499 14.843L25.2499 14.8431L25.2499 14.8432C25.257 14.919 25.264 14.9937 25.264 15.072V15.1658C25.2721 15.3108 25.2721 15.4472 25.2721 15.5836V15.9246C25.264 15.9842 25.264 16.0525 25.264 16.1121V16.2571C25.264 16.2997 25.26 16.3444 25.2559 16.3892L25.2559 16.3892C25.2519 16.434 25.2478 16.4787 25.2478 16.5213V16.581L25.246 16.6035L25.246 16.6035L25.246 16.6036C25.2385 16.6995 25.2305 16.8016 25.2155 16.8964C25.0536 18.1838 24.6652 19.3602 24.034 20.4088C23.1924 21.807 22.0109 22.9067 20.4734 23.6911ZM4.14323 21.0909L4.14323 10.0592L14.9464 10.0592C16.8319 10.0592 18.3208 10.5537 19.4133 11.5511C20.3358 12.3866 20.8699 13.4693 21.0156 14.7907C21.0318 14.9101 21.0399 15.0294 21.0479 15.1488V15.1914C21.0479 15.2543 21.0499 15.3151 21.0519 15.3768L21.0519 15.377V15.377V15.3771V15.3772V15.3772C21.0539 15.441 21.056 15.5058 21.056 15.575V15.5759C21.056 15.7119 21.056 15.8311 21.0479 15.9587V16.061C21.0479 16.1292 21.0408 16.1974 21.0336 16.2656C21.03 16.2997 21.0264 16.3338 21.0237 16.3679C21.0237 16.3935 21.0237 16.419 21.0156 16.4446L21.0102 16.4842C20.9957 16.592 20.9805 16.705 20.9589 16.8112C20.9589 16.8282 20.9589 16.8453 20.9508 16.8623C20.9427 16.8964 20.9355 16.9305 20.9284 16.9646L20.9283 16.9647C20.914 17.0329 20.8996 17.1011 20.878 17.1693C20.878 17.182 20.8739 17.1948 20.8699 17.2076C20.8659 17.2204 20.8618 17.2332 20.8618 17.246C20.7971 17.4762 20.7242 17.7063 20.6271 17.9195C20.6271 17.9365 20.611 17.9536 20.6029 17.9621C20.5624 18.0644 20.5139 18.1582 20.4653 18.252C20.4653 18.2605 20.4572 18.269 20.4491 18.2775L20.4491 18.2775C20.3925 18.3884 20.3358 18.4907 20.2711 18.593C20.0364 18.9596 19.7613 19.292 19.4214 19.5904C18.3209 20.5793 16.8319 21.0823 14.9545 21.0823L10.5361 21.0823L8.01132 21.0909H4.14323ZM6.54647 27.3913H10.5359L10.5359 36.8629H6.54647L6.54647 27.3913ZM93.305 10.9533C93.305 14.1646 94.4458 16.7396 96.7274 18.6781C99.0288 20.6166 102.243 21.5859 106.37 21.5859C110.496 21.5859 113.701 20.6166 115.982 18.6781C118.284 16.7396 119.434 14.1646 119.434 10.9533C119.434 7.74197 118.284 5.16704 115.982 3.22849C113.701 1.28995 110.496 0.320679 106.37 0.320679C102.243 0.320679 99.0288 1.28995 96.7274 3.22849C94.4458 5.16704 93.305 7.74197 93.305 10.9533ZM97.0547 10.9533C97.0547 8.72104 97.8682 6.89998 99.495 5.49013C101.122 4.0607 103.413 3.34598 106.37 3.34598C109.326 3.34598 111.617 4.0607 113.244 5.49013C114.871 6.89998 115.685 8.72104 115.685 10.9533C115.685 13.1856 114.871 15.0164 113.244 16.4458C111.617 17.8557 109.326 18.5606 106.37 18.5606C103.413 18.5606 101.122 17.8557 99.495 16.4458C97.8682 15.0164 97.0547 13.1856 97.0547 10.9533ZM56.6896 0.67314C59.0109 0.67314 60.8858 1.22142 62.3143 2.31797C63.7428 3.41452 64.457 5.01039 64.457 7.10558C64.457 9.22036 63.7626 10.8064 62.3738 11.8638C60.985 12.9016 59.0903 13.4205 56.6896 13.4205L46.7498 13.4205V21.2335H43V0.67314L56.6896 0.67314ZM56.5111 10.5127C57.8007 10.5127 58.8224 10.2288 59.5764 9.66094C60.3303 9.0735 60.7072 8.22171 60.7072 7.10558C60.7072 6.00903 60.3303 5.16704 59.5764 4.5796C58.8224 3.99216 57.8007 3.69845 56.5111 3.69845L46.7498 3.69845V10.5127L56.5111 10.5127ZM86.757 21.2335L78.6326 13.1268H72.3829V21.2335H68.6332V0.67314L82.6502 0.67314C84.9714 0.67314 86.8463 1.22142 88.2748 2.31797C89.7033 3.39493 90.4175 4.95164 90.4175 6.9881C90.4175 9.00496 89.7529 10.5225 88.4236 11.5407C87.0943 12.5394 85.279 13.0583 82.9775 13.0974L91.5484 21.2335H86.757ZM72.3829 3.6397V10.2777H82.4716C83.7612 10.2777 84.783 9.99382 85.5369 9.42596C86.2908 8.85811 86.6678 8.04548 86.6678 6.9881C86.6678 5.93071 86.2809 5.1083 85.5071 4.52086C84.7532 3.93342 83.7414 3.6397 82.4716 3.6397L72.3829 3.6397ZM123.736 0.67314L142.723 0.67314V3.69845L127.486 3.69845V9.71968L139.806 9.71968V12.7156L127.486 12.7156V21.2335H123.736V0.67314ZM150.59 0.67314L146.84 0.67314V21.2335H150.59V0.67314ZM154.263 3.69845V0.67314L176.404 0.67314V3.69845L167.208 3.69845V21.2335L163.459 21.2335V3.69845L154.263 3.69845ZM177.848 10.9533C177.848 14.1646 178.989 16.7396 181.27 18.6781C183.572 20.6166 186.786 21.5859 190.913 21.5859C195.039 21.5859 198.243 20.6166 200.525 18.6781C202.827 16.7396 203.977 14.1646 203.977 10.9533C203.977 7.74197 202.827 5.16704 200.525 3.22849C198.243 1.28995 195.039 0.320679 190.913 0.320679C186.786 0.320679 183.572 1.28995 181.27 3.22849C178.989 5.16704 177.848 7.74197 177.848 10.9533ZM181.598 10.9533C181.598 8.72104 182.411 6.89998 184.038 5.49013C185.665 4.0607 187.956 3.34598 190.913 3.34598C193.869 3.34598 196.16 4.0607 197.787 5.49013C199.414 6.89998 200.227 8.72104 200.227 10.9533C200.227 13.1856 199.414 15.0164 197.787 16.4458C196.16 17.8557 193.869 18.5606 190.913 18.5606C187.956 18.5606 185.665 17.8557 184.038 16.4458C182.411 15.0164 181.598 13.1856 181.598 10.9533ZM226.105 0.67314L230.003 0.67314L220.182 21.2335H214.617L204.886 0.67314L208.873 0.67314L217.444 19.4124L226.105 0.67314ZM140.823 33.15C140.887 33.8332 141.282 34.383 142.007 34.7993C142.742 35.2157 143.781 35.4238 145.122 35.4238C146.215 35.4238 147.129 35.2957 147.864 35.0395C148.6 34.7833 148.967 34.3777 148.967 33.8226C148.967 33.118 148.226 32.6056 146.745 32.2853L142.883 31.4206C140.601 30.9295 139.46 29.9421 139.46 28.4582C139.46 27.7536 139.708 27.1612 140.206 26.6808C140.704 26.2004 141.336 25.8588 142.104 25.656C142.883 25.4424 143.765 25.3357 144.749 25.3357C146.393 25.3357 147.734 25.6346 148.773 26.2324C149.822 26.8196 150.411 27.6522 150.541 28.7304L148.61 28.8105C148.535 28.2447 148.151 27.775 147.458 27.4014C146.766 27.0277 145.836 26.8409 144.668 26.8409C143.727 26.8409 142.964 26.9743 142.38 27.2412C141.796 27.4974 141.504 27.8657 141.504 28.3461C141.504 29.0614 142.218 29.5738 143.646 29.8834L147.312 30.668C148.578 30.9349 149.508 31.3032 150.103 31.7729C150.709 32.2319 151.012 32.8671 151.012 33.6784C151.012 34.7566 150.487 35.568 149.438 36.1124C148.399 36.6568 146.961 36.9291 145.122 36.9291C143.175 36.9291 141.672 36.6141 140.612 35.9843C139.562 35.3438 138.989 34.4204 138.892 33.2141L140.823 33.15ZM50.1235 25.5278C51.389 25.5278 52.4111 25.8268 53.1899 26.4246C53.9687 27.0224 54.3581 27.8924 54.3581 29.0347C54.3581 30.1876 53.9795 31.0523 53.2223 31.6288C52.4652 32.1946 51.4322 32.4775 50.1235 32.4775H44.7045V36.7369H42.6602V25.5278H50.1235ZM50.0261 30.8922C50.7292 30.8922 51.2862 30.7374 51.6972 30.4278C52.1083 30.1075 52.3138 29.6432 52.3138 29.0347C52.3138 28.4369 52.1083 27.9778 51.6972 27.6576C51.2862 27.3373 50.7292 27.1772 50.0261 27.1772H44.7045V30.8922H50.0261ZM65.9877 36.7369L64.6572 34.0307H57.129L55.7986 36.7369H53.7543L59.368 25.5278H62.4669L68.0968 36.7369L65.9877 36.7369ZM57.8916 32.4935H63.8947L60.8931 26.3925L57.8916 32.4935ZM75.4113 32.3173L79.8406 36.7369H82.4528L77.7801 32.3013C79.0348 32.28 80.0245 31.9971 80.7492 31.4526C81.4739 30.8975 81.8363 30.0702 81.8363 28.9706C81.8363 27.8604 81.4469 27.0117 80.6681 26.4246C79.8893 25.8268 78.8672 25.5278 77.6017 25.5278L69.9599 25.5278V36.7369H72.0042V32.3173H75.4113ZM72.0042 30.7641V27.1452L77.5043 27.1452C78.1966 27.1452 78.7482 27.3053 79.1592 27.6255C79.5811 27.9458 79.792 28.3942 79.792 28.9706C79.792 29.5471 79.5865 29.9901 79.1754 30.2997C78.7644 30.6093 78.2074 30.7641 77.5043 30.7641L72.0042 30.7641ZM82.8 27.1772V25.5278H94.8711V27.1772H89.8577V36.7369H87.8134V27.1772H82.8ZM109.502 25.5278H107.523V35.6801L100.352 25.5278L96.8635 25.5278V36.7369H98.8267V26.5847L105.998 36.7369H109.502V25.5278ZM112.581 36.7369V25.5278L123.224 25.5278V27.1131L114.625 27.1131V30.2837H121.423V31.7889H114.625V35.1516H123.549V36.7369H112.581ZM131.342 32.3173L135.771 36.7369H138.383L133.711 32.3013C134.965 32.28 135.955 31.9971 136.68 31.4526C137.404 30.8975 137.767 30.0702 137.767 28.9706C137.767 27.8604 137.377 27.0117 136.598 26.4246C135.82 25.8268 134.798 25.5278 133.532 25.5278H125.89V36.7369H127.935V32.3173H131.342ZM127.935 30.7641V27.1452H133.435C134.127 27.1452 134.679 27.3053 135.09 27.6255C135.511 27.9458 135.722 28.3942 135.722 28.9706C135.722 29.5471 135.517 29.9901 135.106 30.2997C134.695 30.6093 134.138 30.7641 133.435 30.7641H127.935Z" fill="white"/>
</svg>
