<svg width="73" height="73" viewBox="0 0 73 73" fill="none" xmlns="http://www.w3.org/2000/svg">
<path d="M36.5713 72.6424C56.4923 72.6424 72.6415 56.4932 72.6415 36.5722C72.6415 16.6511 56.4923 0.501953 36.5713 0.501953C16.6502 0.501953 0.501038 16.6511 0.501038 36.5722C0.501038 56.4932 16.6502 72.6424 36.5713 72.6424Z" fill="url(#paint0_radial_1_2)"/>
<path d="M36.5725 65.4224C52.5061 65.4224 65.4228 52.5057 65.4228 36.5722C65.4228 20.6386 52.5061 7.72192 36.5725 7.72192C20.639 7.72192 7.72227 20.6386 7.72227 36.5722C7.72227 52.5057 20.639 65.4224 36.5725 65.4224Z" fill="url(#paint1_radial_1_2)"/>
<g style="mix-blend-mode:overlay" opacity="0.8">
<path d="M52.4453 28.0662C52.4368 28.1071 52.4368 28.1492 52.4453 28.1901C52.4305 28.5212 52.3891 28.8507 52.3214 29.1751C52.1838 29.9692 51.9398 30.741 51.5958 31.4697C50.9263 32.8904 49.8821 34.1017 48.5757 34.9735C48.5396 35.0065 48.4976 35.0325 48.4519 35.0502C48.4447 35.0409 48.4408 35.0295 48.4408 35.0178C48.4408 35.006 48.4447 34.9946 48.4519 34.9853C48.5216 34.2718 48.5355 33.5539 48.4932 32.8382C48.436 31.7437 48.2378 30.6612 47.9033 29.6175C47.8872 29.5813 47.8789 29.5421 47.8789 29.5025C47.8789 29.4629 47.8872 29.4237 47.9033 29.3875C47.9661 29.2256 48.0193 29.0602 48.0626 28.892C48.2091 28.3138 48.2785 27.7188 48.269 27.1224C48.2699 26.5735 48.2026 26.0266 48.0685 25.4944C47.894 24.7928 47.5695 24.1373 47.1174 23.5732C46.6653 23.009 46.0962 22.5496 45.4495 22.2265C44.9392 21.9625 44.3925 21.7756 43.8273 21.6721C43.2616 21.565 42.6866 21.5136 42.1108 21.5187H37.1855H36.6546C36.3715 21.5187 36.0647 21.5187 35.7993 21.5187H27.1873C27.1801 21.5197 27.1727 21.519 27.1659 21.5167C27.159 21.5143 27.1527 21.5104 27.1476 21.5053C27.1424 21.5002 27.1386 21.4939 27.1362 21.487C27.1339 21.4802 27.1332 21.4728 27.1342 21.4656V17.7318C27.1167 17.6801 27.1167 17.6242 27.1342 17.5725H42.4707C42.5251 17.5841 42.5814 17.5841 42.6358 17.5725C43.0291 17.5725 43.4125 17.5961 43.786 17.6433C44.2225 17.6964 44.6532 17.7672 45.0838 17.8616C46.0529 18.0729 46.9865 18.4225 47.8561 18.8997C48.9586 19.5091 49.9177 20.3478 50.6686 21.3592C51.4196 22.3706 51.9449 23.5313 52.2093 24.763C52.3173 25.2121 52.3844 25.6702 52.4099 26.1314C52.3986 26.1619 52.3986 26.1954 52.4099 26.2258L52.4453 28.0662Z" fill="black"/>
<path d="M27.3 55.5716C27.2918 55.5447 27.2918 55.5159 27.3 55.489V55.3652C27.3 52.2448 27.3 49.1244 27.3 46.004C27.3 45.7622 27.2587 45.7917 27.5124 45.7917H31.1046C31.3347 45.7917 31.2993 45.7917 31.2993 45.9922V55.3652C31.32 55.4284 31.32 55.4966 31.2993 55.5598L27.3 55.5716Z" fill="black"/>
<path d="M20.6993 39.781V24.1024C20.6993 24.0611 20.6993 24.0434 20.7642 24.0434H35.7467C36.1537 24.0434 36.5607 24.0434 36.9677 24.0847C38.239 24.1737 39.4858 24.4789 40.6544 24.9872C41.6156 25.4055 42.4975 25.9861 43.2616 26.7037C44.3961 27.7784 45.2229 29.1367 45.6565 30.6381C45.8081 31.1672 45.9166 31.7077 45.9809 32.2543C46.0281 32.6319 46.0518 33.0122 46.0517 33.3927C46.0517 33.8528 46.0517 34.3188 46.0517 34.7789C46.0517 35.0621 45.9809 35.3688 45.9337 35.6224C45.8007 36.3602 45.5788 37.0792 45.273 37.7636C44.5 39.4962 43.1828 40.9293 41.5215 41.8455C40.5804 42.3834 39.5586 42.7659 38.4955 42.978C38.037 43.0664 37.5744 43.1314 37.1093 43.1727C36.6846 43.214 36.2599 43.2258 35.8293 43.2258H25.082C24.8401 43.2258 24.8696 43.1904 24.8696 43.444V55.4949C24.8696 55.548 24.8696 55.5657 24.8047 55.5657H20.7642C20.7495 55.5658 20.7353 55.5604 20.7244 55.5506C20.7135 55.5408 20.7066 55.5272 20.7052 55.5126C20.7023 55.4891 20.7023 55.4654 20.7052 55.4419V39.8105L20.6993 39.781ZM30.727 39.2973H35.6759C36.1578 39.3003 36.6391 39.2648 37.1152 39.1911C37.6617 39.1065 38.195 38.9518 38.702 38.731C39.3724 38.4499 39.9755 38.0297 40.4715 37.4982C41.14 36.7826 41.5831 35.8861 41.7457 34.9205C41.8007 34.6166 41.8323 34.309 41.84 34.0003C41.8716 33.3652 41.8201 32.7286 41.6867 32.1068C41.4374 30.9312 40.7738 29.8844 39.8168 29.1575C39.1451 28.6478 38.3667 28.2968 37.5399 28.1311C36.945 28.0026 36.3376 27.9413 35.729 27.9483H25.0466C24.8519 27.9483 24.8696 27.9483 24.8696 28.1311V39.1144C24.8696 39.3268 24.8696 39.3032 25.0584 39.3032L30.727 39.2973Z" fill="black"/>
<path d="M33.3342 32.9502H39.2801C39.3685 32.9502 39.3744 32.9502 39.3921 33.0386C39.4402 33.3012 39.456 33.5686 39.4393 33.835C39.4314 34.1115 39.3939 34.3864 39.3273 34.6549C39.1791 35.2264 38.8265 35.7238 38.3363 36.0529C37.9777 36.2946 37.5778 36.4685 37.1566 36.566C36.7393 36.6681 36.312 36.7235 35.8824 36.7312H27.3589C27.2881 36.7312 27.2822 36.7312 27.2822 36.6486C27.2793 36.6172 27.2793 36.5856 27.2822 36.5542V33.1153C27.2822 32.9325 27.2822 32.9502 27.4474 32.9502H33.3342Z" fill="black"/>
</g>
<defs>
<radialGradient id="paint0_radial_1_2" cx="0" cy="0" r="1" gradientUnits="userSpaceOnUse" gradientTransform="translate(36.573 36.5722) rotate(-45) scale(36.0702)">
<stop offset="0.06" stop-color="white"/>
<stop offset="0.11" stop-color="#DEDEDD"/>
<stop offset="0.25" stop-color="#2C2B2D"/>
<stop offset="0.38" stop-color="#AEAEAD"/>
<stop offset="0.58" stop-color="white"/>
<stop offset="0.75" stop-color="#696969"/>
<stop offset="0.84" stop-color="#E2E2E2"/>
<stop offset="1" stop-color="#7E7E7E"/>
</radialGradient>
<radialGradient id="paint1_radial_1_2" cx="0" cy="0" r="1" gradientUnits="userSpaceOnUse" gradientTransform="translate(36.5743 36.5722) rotate(-45) scale(28.8503)">
<stop stop-color="#E2E2E2"/>
<stop offset="0.87" stop-color="#696969"/>
</radialGradient>
</defs>
</svg>
