<svg width="33" height="39" viewBox="0 0 33 39" fill="none" xmlns="http://www.w3.org/2000/svg">
<g style="mix-blend-mode:overlay" opacity="0.8">
<path d="M32.4452 11.0662C32.4368 11.1071 32.4368 11.1492 32.4452 11.1901C32.4305 11.5212 32.3891 11.8507 32.3214 12.1751C32.1838 12.9692 31.9398 13.741 31.5958 14.4697C30.9262 15.8904 29.8821 17.1017 28.5757 17.9735C28.5396 18.0065 28.4976 18.0325 28.4519 18.0502C28.4447 18.0409 28.4408 18.0295 28.4408 18.0178C28.4408 18.006 28.4447 17.9946 28.4519 17.9853C28.5216 17.2718 28.5354 16.5539 28.4932 15.8382C28.436 14.7437 28.2377 13.6612 27.9033 12.6175C27.8872 12.5813 27.8789 12.5421 27.8789 12.5025C27.8789 12.4629 27.8872 12.4237 27.9033 12.3875C27.9661 12.2256 28.0193 12.0602 28.0626 11.892C28.2091 11.3138 28.2785 10.7188 28.269 10.1224C28.2699 9.57352 28.2026 9.02664 28.0685 8.49438C27.894 7.79278 27.5695 7.13733 27.1174 6.57318C26.6653 6.00904 26.0962 5.54962 25.4495 5.22655C24.9392 4.96245 24.3925 4.77559 23.8273 4.67207C23.2616 4.56496 22.6866 4.51358 22.1108 4.5187H17.1855H16.6546C16.3714 4.5187 16.0647 4.5187 15.7993 4.5187H7.18727C7.18006 4.51968 7.17273 4.51897 7.16584 4.51665C7.15896 4.51433 7.15271 4.51045 7.14757 4.50531C7.14243 4.50017 7.13856 4.49392 7.13623 4.48704C7.13391 4.48015 7.13321 4.47282 7.13418 4.46562V0.731785C7.11665 0.680144 7.11665 0.624151 7.13418 0.57251H22.4707C22.5251 0.584142 22.5814 0.584142 22.6358 0.57251C23.0291 0.57251 23.4125 0.596101 23.786 0.643291C24.2225 0.696378 24.6531 0.767177 25.0837 0.861555C26.0529 1.07293 26.9865 1.42255 27.8561 1.8997C28.9586 2.5091 29.9177 3.34779 30.6686 4.35921C31.4196 5.37064 31.9449 6.53129 32.2093 7.76296C32.3172 8.21215 32.3844 8.67017 32.4099 9.13145C32.3986 9.16189 32.3986 9.19538 32.4099 9.22583L32.4452 11.0662Z" fill="black"/>
<path d="M7.29998 38.5716C7.29177 38.5447 7.29177 38.5159 7.29998 38.489V38.3652C7.29998 35.2448 7.29998 32.1244 7.29998 29.004C7.29998 28.7622 7.25868 28.7917 7.51232 28.7917H11.1046C11.3346 28.7917 11.2993 28.7917 11.2993 28.9922V38.3652C11.32 38.4284 11.32 38.4966 11.2993 38.5598L7.29998 38.5716Z" fill="black"/>
<path d="M0.69928 22.781V7.10245C0.69928 7.06116 0.699271 7.04346 0.764156 7.04346H15.7467C16.1537 7.04346 16.5607 7.04346 16.9677 7.08475C18.239 7.17379 19.4857 7.479 20.6544 7.98724C21.6155 8.40552 22.4975 8.98617 23.2616 9.70375C24.3961 10.7785 25.2229 12.1367 25.6564 13.6381C25.8081 14.1672 25.9166 14.7078 25.9809 15.2544C26.0281 15.632 26.0517 16.0122 26.0516 16.3928C26.0516 16.8529 26.0516 17.3189 26.0516 17.779C26.0516 18.0621 25.9809 18.3689 25.9337 18.6225C25.8007 19.3603 25.5788 20.0792 25.273 20.7637C24.5 22.4963 23.1828 23.9294 21.5215 24.8456C20.5804 25.3835 19.5585 25.7659 18.4955 25.9781C18.037 26.0665 17.5744 26.1315 17.1093 26.1727C16.6846 26.214 16.2599 26.2259 15.8293 26.2259H5.08197C4.84012 26.2259 4.86961 26.1905 4.86961 26.4441V38.495C4.86961 38.5481 4.86962 38.5658 4.80473 38.5658H0.764156C0.749482 38.5659 0.735317 38.5605 0.72441 38.5507C0.713502 38.5408 0.706633 38.5273 0.705166 38.5127C0.702266 38.4892 0.702266 38.4654 0.705166 38.4419V22.8105L0.69928 22.781ZM10.727 22.2974H15.6759C16.1577 22.3004 16.639 22.2648 17.1152 22.1912C17.6617 22.1065 18.195 21.9519 18.7019 21.7311C19.3724 21.45 19.9755 21.0298 20.4715 20.4983C21.1399 19.7826 21.583 18.8862 21.7456 17.9206C21.8007 17.6167 21.8322 17.3091 21.84 17.0004C21.8716 16.3652 21.8201 15.7287 21.6866 15.1069C21.4374 13.9313 20.7738 12.8845 19.8168 12.1576C19.1451 11.6478 18.3667 11.2969 17.5399 11.1312C16.945 11.0027 16.3376 10.9414 15.729 10.9484H5.04658C4.85192 10.9484 4.86961 10.9484 4.86961 11.1312V22.1145C4.86961 22.3268 4.86961 22.3032 5.05837 22.3032L10.727 22.2974Z" fill="black"/>
<path d="M13.3342 15.9502H19.2801C19.3685 15.9502 19.3744 15.9502 19.3921 16.0386C19.4402 16.3012 19.456 16.5686 19.4393 16.835C19.4314 17.1115 19.3939 17.3864 19.3273 17.6549C19.1791 18.2264 18.8265 18.7238 18.3363 19.0529C17.9777 19.2946 17.5778 19.4685 17.1566 19.566C16.7393 19.6681 16.3119 19.7235 15.8824 19.7312H7.3589C7.28811 19.7312 7.28223 19.7312 7.28223 19.6486C7.2793 19.6172 7.2793 19.5856 7.28223 19.5542V16.1153C7.28223 15.9325 7.28223 15.9502 7.44739 15.9502H13.3342Z" fill="black"/>
</g>
</svg>
