<svg width="531" height="531" viewBox="0 0 531 531" fill="none" xmlns="http://www.w3.org/2000/svg">
<path d="M265.572 265.572L60.4404 181.499L265.572 265.572Z" fill="white"/>
<path d="M265.573 265.572L470.704 349.646L265.573 265.572Z" fill="#2C2B2D"/>
<g style="mix-blend-mode:multiply" opacity="0.6">
<path d="M265.573 43.8245C143.105 43.8245 43.8251 143.105 43.8251 265.572C43.8251 388.04 143.105 487.32 265.573 487.32C388.04 487.32 487.321 388.04 487.321 265.572C487.321 143.105 388.04 43.8245 265.573 43.8245ZM265.573 478.2C148.137 478.2 52.9385 383.002 52.9385 265.572C52.9385 154.796 137.649 63.8032 245.824 53.8404L234.227 49.0094L265.567 79.5053L293.88 51.3334L285.321 53.864C393.497 63.8268 478.207 154.819 478.207 265.625C478.201 383.002 383.003 478.2 265.573 478.2Z" fill="#2C2B2D"/>
</g>
<path d="M265.573 487.32C388.041 487.32 487.321 388.04 487.321 265.572C487.321 143.104 388.041 43.8245 265.573 43.8245C143.105 43.8245 43.8251 143.104 43.8251 265.572C43.8251 388.04 143.105 487.32 265.573 487.32Z" stroke="url(#paint0_linear_1_2)" stroke-width="10" stroke-miterlimit="10"/>
<path d="M265.572 5.94922C122.188 5.94922 5.94931 122.188 5.94931 265.572C5.94931 408.956 122.188 525.189 265.572 525.189C408.956 525.189 525.189 408.986 525.189 265.572C525.189 122.158 408.956 5.94922 265.572 5.94922ZM265.572 490.399C141.4 490.399 40.7513 389.739 40.7513 265.572C40.7513 151.834 125.196 57.8573 234.817 42.8275L265.578 73.589L296.334 42.8275C405.954 57.8278 490.399 151.834 490.399 265.572C490.399 389.739 389.739 490.399 265.572 490.399Z" fill="url(#paint1_linear_1_2)"/>
<g style="mix-blend-mode:multiply" opacity="0.6">
<path d="M265.572 4.13843C121.185 4.13843 4.13824 121.185 4.13824 265.572C4.13824 409.959 121.185 527 265.572 527C409.959 527 527 409.953 527 265.572C527 121.191 409.953 4.13843 265.572 4.13843ZM265.572 516.253C127.125 516.253 14.8797 404.019 14.8797 265.56C14.8797 127.102 127.119 14.8681 265.572 14.8681C404.025 14.8681 516.264 127.107 516.264 265.56C516.264 404.013 404.019 516.253 265.572 516.253Z" fill="#2C2B2D"/>
</g>
<path d="M265.572 525.195C408.958 525.195 525.195 408.958 525.195 265.572C525.195 122.186 408.958 5.94922 265.572 5.94922C122.186 5.94922 5.94931 122.186 5.94931 265.572C5.94931 408.958 122.186 525.195 265.572 525.195Z" stroke="url(#paint2_linear_1_2)" stroke-width="10" stroke-miterlimit="10"/>
<path d="M146.314 482.064C151.904 482.064 156.436 477.532 156.436 471.942C156.436 466.352 151.904 461.82 146.314 461.82C140.724 461.82 136.192 466.352 136.192 471.942C136.192 477.532 140.724 482.064 146.314 482.064Z" fill="url(#paint3_radial_1_2)"/>
<path d="M384.725 69.3245C390.315 69.3245 394.847 64.7927 394.847 59.2024C394.847 53.6121 390.315 49.0803 384.725 49.0803C379.135 49.0803 374.603 53.6121 374.603 59.2024C374.603 64.7927 379.135 69.3245 384.725 69.3245Z" fill="url(#paint4_radial_1_2)"/>
<path d="M96.9658 444.177C102.556 444.177 107.088 439.645 107.088 434.055C107.088 428.465 102.556 423.933 96.9658 423.933C91.3755 423.933 86.8437 428.465 86.8437 434.055C86.8437 439.645 91.3755 444.177 96.9658 444.177Z" fill="url(#paint5_radial_1_2)"/>
<path d="M434.078 107.206C439.668 107.206 444.2 102.674 444.2 97.0835C444.2 91.4932 439.668 86.9614 434.078 86.9614C428.488 86.9614 423.956 91.4932 423.956 97.0835C423.956 102.674 428.488 107.206 434.078 107.206Z" fill="url(#paint6_radial_1_2)"/>
<path d="M59.1015 394.811C64.6918 394.811 69.2236 390.279 69.2236 384.689C69.2236 379.099 64.6918 374.567 59.1015 374.567C53.5113 374.567 48.9795 379.099 48.9795 384.689C48.9795 390.279 53.5113 394.811 59.1015 394.811Z" fill="url(#paint7_radial_1_2)"/>
<path d="M471.942 156.571C477.532 156.571 482.064 152.039 482.064 146.449C482.064 140.859 477.532 136.327 471.942 136.327C466.352 136.327 461.82 140.859 461.82 146.449C461.82 152.039 466.352 156.571 471.942 156.571Z" fill="url(#paint8_radial_1_2)"/>
<path d="M35.3065 337.329C40.8968 337.329 45.4286 332.797 45.4286 327.207C45.4286 321.617 40.8968 317.085 35.3065 317.085C29.7163 317.085 25.1844 321.617 25.1844 327.207C25.1844 332.797 29.7163 337.329 35.3065 337.329Z" fill="url(#paint9_radial_1_2)"/>
<path d="M495.737 214.059C501.327 214.059 505.859 209.528 505.859 203.937C505.859 198.347 501.327 193.815 495.737 193.815C490.147 193.815 485.615 198.347 485.615 203.937C485.615 209.528 490.147 214.059 495.737 214.059Z" fill="url(#paint10_radial_1_2)"/>
<path d="M27.1844 255.403C25.1822 255.403 23.2249 255.997 21.5602 257.109C19.8955 258.222 18.5982 259.803 17.8322 261.653C17.0663 263.503 16.8662 265.538 17.2572 267.502C17.6483 269.465 18.6129 271.269 20.0291 272.684C21.4453 274.1 23.2494 275.063 25.2133 275.453C27.1771 275.843 29.2125 275.642 31.062 274.875C32.9115 274.108 34.4919 272.809 35.6034 271.144C36.7149 269.479 37.3076 267.521 37.3064 265.519C37.3064 264.19 37.0446 262.874 36.5358 261.646C36.0271 260.419 35.2814 259.303 34.3414 258.364C33.4014 257.424 32.2855 256.679 31.0575 256.171C29.8294 255.663 28.5133 255.402 27.1844 255.403Z" fill="url(#paint11_radial_1_2)"/>
<path d="M503.848 255.497C501.846 255.497 499.889 256.091 498.224 257.203C496.56 258.315 495.262 259.896 494.496 261.746C493.73 263.595 493.53 265.631 493.92 267.594C494.311 269.558 495.275 271.361 496.69 272.777C498.106 274.192 499.91 275.156 501.873 275.547C503.837 275.938 505.872 275.737 507.721 274.971C509.571 274.205 511.152 272.907 512.264 271.243C513.376 269.578 513.97 267.621 513.97 265.619C513.97 262.935 512.903 260.36 511.005 258.462C509.107 256.564 506.532 255.497 503.848 255.497Z" fill="url(#paint12_radial_1_2)"/>
<path d="M35.3295 213.965C40.9198 213.965 45.4516 209.433 45.4516 203.843C45.4516 198.253 40.9198 193.721 35.3295 193.721C29.7393 193.721 25.2075 198.253 25.2075 203.843C25.2075 209.433 29.7393 213.965 35.3295 213.965Z" fill="url(#paint13_radial_1_2)"/>
<path d="M495.714 337.423C501.304 337.423 505.836 332.892 505.836 327.301C505.836 321.711 501.304 317.179 495.714 317.179C490.124 317.179 485.592 321.711 485.592 327.301C485.592 332.892 490.124 337.423 495.714 337.423Z" fill="url(#paint14_radial_1_2)"/>
<path d="M59.1499 156.489C64.7402 156.489 69.272 151.957 69.272 146.366C69.272 140.776 64.7402 136.244 59.1499 136.244C53.5597 136.244 49.0279 140.776 49.0279 146.366C49.0279 151.957 53.5597 156.489 59.1499 156.489Z" fill="url(#paint15_radial_1_2)"/>
<path d="M471.889 394.9C477.479 394.9 482.011 390.368 482.011 384.778C482.011 379.188 477.479 374.656 471.889 374.656C466.299 374.656 461.767 379.188 461.767 384.778C461.767 390.368 466.299 394.9 471.889 394.9Z" fill="url(#paint16_radial_1_2)"/>
<path d="M97.0372 107.135C102.627 107.135 107.159 102.603 107.159 97.0125C107.159 91.4222 102.627 86.8904 97.0372 86.8904C91.4469 86.8904 86.9151 91.4222 86.9151 97.0125C86.9151 102.603 91.4469 107.135 97.0372 107.135Z" fill="url(#paint17_radial_1_2)"/>
<path d="M434.009 444.248C439.599 444.248 444.131 439.716 444.131 434.126C444.131 428.536 439.599 424.004 434.009 424.004C428.418 424.004 423.887 428.536 423.887 434.126C423.887 439.716 428.418 444.248 434.009 444.248Z" fill="url(#paint18_radial_1_2)"/>
<path d="M146.401 69.2712C151.992 69.2712 156.524 64.7394 156.524 59.1492C156.524 53.5589 151.992 49.0271 146.401 49.0271C140.811 49.0271 136.279 53.5589 136.279 59.1492C136.279 64.7394 140.811 69.2712 146.401 69.2712Z" fill="url(#paint19_radial_1_2)"/>
<path d="M384.642 482.111C390.232 482.111 394.764 477.58 394.764 471.989C394.764 466.399 390.232 461.867 384.642 461.867C379.052 461.867 374.52 466.399 374.52 471.989C374.52 477.58 379.052 482.111 384.642 482.111Z" fill="url(#paint20_radial_1_2)"/>
<path d="M203.883 45.4761C209.474 45.4761 214.005 40.9443 214.005 35.354C214.005 29.7637 209.474 25.2319 203.883 25.2319C198.293 25.2319 193.761 29.7637 193.761 35.354C193.761 40.9443 198.293 45.4761 203.883 45.4761Z" fill="url(#paint21_radial_1_2)"/>
<path d="M327.153 505.912C332.744 505.912 337.276 501.381 337.276 495.79C337.276 490.2 332.744 485.668 327.153 485.668C321.563 485.668 317.031 490.2 317.031 495.79C317.031 501.381 321.563 505.912 327.153 505.912Z" fill="url(#paint22_radial_1_2)"/>
<path d="M275.695 27.2434C275.695 25.2415 275.101 23.2845 273.989 21.6199C272.877 19.9553 271.296 18.658 269.446 17.8918C267.597 17.1257 265.561 16.9253 263.598 17.3158C261.634 17.7064 259.831 18.6704 258.415 20.086C257 21.5016 256.036 23.3052 255.645 25.2687C255.254 27.2322 255.455 29.2674 256.221 31.117C256.987 32.9665 258.284 34.5474 259.949 35.6596C261.614 36.7718 263.571 37.3655 265.573 37.3655C268.257 37.3655 270.832 36.2991 272.73 34.4008C274.628 32.5025 275.695 29.928 275.695 27.2434Z" fill="url(#paint23_radial_1_2)"/>
<path d="M265.471 514.017C271.061 514.017 275.593 509.485 275.593 503.895C275.593 498.305 271.061 493.773 265.471 493.773C259.881 493.773 255.349 498.305 255.349 503.895C255.349 509.485 259.881 514.017 265.471 514.017Z" fill="url(#paint24_radial_1_2)"/>
<path d="M327.255 45.4998C332.845 45.4998 337.377 40.968 337.377 35.3777C337.377 29.7874 332.845 25.2556 327.255 25.2556C321.665 25.2556 317.133 29.7874 317.133 35.3777C317.133 40.968 321.665 45.4998 327.255 45.4998Z" fill="url(#paint25_radial_1_2)"/>
<path d="M203.789 505.883C209.379 505.883 213.911 501.351 213.911 495.761C213.911 490.17 209.379 485.639 203.789 485.639C198.199 485.639 193.667 490.17 193.667 495.761C193.667 501.351 198.199 505.883 203.789 505.883Z" fill="url(#paint26_radial_1_2)"/>
<path d="M384.725 69.3245C390.315 69.3245 394.847 64.7927 394.847 59.2024C394.847 53.6121 390.315 49.0803 384.725 49.0803C379.135 49.0803 374.603 53.6121 374.603 59.2024C374.603 64.7927 379.135 69.3245 384.725 69.3245Z" fill="url(#paint27_radial_1_2)"/>
<path d="M146.314 482.064C151.904 482.064 156.436 477.532 156.436 471.942C156.436 466.352 151.904 461.82 146.314 461.82C140.724 461.82 136.192 466.352 136.192 471.942C136.192 477.532 140.724 482.064 146.314 482.064Z" fill="url(#paint28_radial_1_2)"/>
<path d="M434.078 107.206C439.668 107.206 444.2 102.674 444.2 97.0835C444.2 91.4932 439.668 86.9614 434.078 86.9614C428.488 86.9614 423.956 91.4932 423.956 97.0835C423.956 102.674 428.488 107.206 434.078 107.206Z" fill="url(#paint29_radial_1_2)"/>
<path d="M96.9658 444.177C102.556 444.177 107.088 439.645 107.088 434.055C107.088 428.465 102.556 423.933 96.9658 423.933C91.3755 423.933 86.8437 428.465 86.8437 434.055C86.8437 439.645 91.3755 444.177 96.9658 444.177Z" fill="url(#paint30_radial_1_2)"/>
<path d="M471.942 156.571C477.532 156.571 482.064 152.039 482.064 146.449C482.064 140.859 477.532 136.327 471.942 136.327C466.352 136.327 461.82 140.859 461.82 146.449C461.82 152.039 466.352 156.571 471.942 156.571Z" fill="url(#paint31_radial_1_2)"/>
<path d="M59.1015 394.811C64.6918 394.811 69.2236 390.279 69.2236 384.689C69.2236 379.099 64.6918 374.567 59.1015 374.567C53.5113 374.567 48.9795 379.099 48.9795 384.689C48.9795 390.279 53.5113 394.811 59.1015 394.811Z" fill="url(#paint32_radial_1_2)"/>
<path d="M495.737 214.059C501.327 214.059 505.859 209.528 505.859 203.937C505.859 198.347 501.327 193.815 495.737 193.815C490.147 193.815 485.615 198.347 485.615 203.937C485.615 209.528 490.147 214.059 495.737 214.059Z" fill="url(#paint33_radial_1_2)"/>
<path d="M35.3065 337.329C40.8968 337.329 45.4286 332.797 45.4286 327.207C45.4286 321.617 40.8968 317.085 35.3065 317.085C29.7163 317.085 25.1844 321.617 25.1844 327.207C25.1844 332.797 29.7163 337.329 35.3065 337.329Z" fill="url(#paint34_radial_1_2)"/>
<path d="M503.848 275.741C509.438 275.741 513.97 271.21 513.97 265.619C513.97 260.029 509.438 255.497 503.848 255.497C498.258 255.497 493.726 260.029 493.726 265.619C493.726 271.21 498.258 275.741 503.848 275.741Z" fill="url(#paint35_radial_1_2)"/>
<path d="M27.1959 275.641C32.7861 275.641 37.3179 271.109 37.3179 265.519C37.3179 259.929 32.7861 255.397 27.1959 255.397C21.6056 255.397 17.0738 259.929 17.0738 265.519C17.0738 271.109 21.6056 275.641 27.1959 275.641Z" fill="url(#paint36_radial_1_2)"/>
<defs>
<linearGradient id="paint0_linear_1_2" x1="188.702" y1="476.773" x2="342.444" y2="54.3653" gradientUnits="userSpaceOnUse">
<stop offset="0.06" stop-color="white"/>
<stop offset="0.11" stop-color="#DEDEDD"/>
<stop offset="0.25" stop-color="#2C2B2D"/>
<stop offset="0.38" stop-color="#AEAEAD"/>
<stop offset="0.58" stop-color="white"/>
<stop offset="0.75" stop-color="#696969"/>
<stop offset="0.84" stop-color="#E2E2E2"/>
<stop offset="1" stop-color="#7E7E7E"/>
</linearGradient>
<linearGradient id="paint1_linear_1_2" x1="176.75" y1="509.599" x2="354.388" y2="21.5393" gradientUnits="userSpaceOnUse">
<stop offset="0.06" stop-color="white"/>
<stop offset="0.11" stop-color="#DEDEDD"/>
<stop offset="0.25" stop-color="#2C2B2D"/>
<stop offset="0.38" stop-color="#AEAEAD"/>
<stop offset="0.58" stop-color="white"/>
<stop offset="0.75" stop-color="#696969"/>
<stop offset="0.84" stop-color="#E2E2E2"/>
<stop offset="1" stop-color="#7E7E7E"/>
</linearGradient>
<linearGradient id="paint2_linear_1_2" x1="154.577" y1="27.539" x2="376.572" y2="503.605" gradientUnits="userSpaceOnUse">
<stop offset="0.06" stop-color="white"/>
<stop offset="0.11" stop-color="#DEDEDD"/>
<stop offset="0.25" stop-color="#2C2B2D"/>
<stop offset="0.38" stop-color="#AEAEAD"/>
<stop offset="0.58" stop-color="white"/>
<stop offset="0.75" stop-color="#696969"/>
<stop offset="0.84" stop-color="#E2E2E2"/>
<stop offset="1" stop-color="#7E7E7E"/>
</linearGradient>
<radialGradient id="paint3_radial_1_2" cx="0" cy="0" r="1" gradientUnits="userSpaceOnUse" gradientTransform="translate(146.312 471.946) rotate(-150) scale(10.1221 10.1221)">
<stop stop-color="white"/>
<stop offset="1" stop-color="#7E7E7E"/>
</radialGradient>
<radialGradient id="paint4_radial_1_2" cx="0" cy="0" r="1" gradientUnits="userSpaceOnUse" gradientTransform="translate(384.725 59.2037) rotate(-150) scale(10.1221 10.1221)">
<stop stop-color="white"/>
<stop offset="1" stop-color="#7E7E7E"/>
</radialGradient>
<radialGradient id="paint5_radial_1_2" cx="0" cy="0" r="1" gradientUnits="userSpaceOnUse" gradientTransform="translate(96.9602 434.059) rotate(-135) scale(10.1221)">
<stop stop-color="white"/>
<stop offset="1" stop-color="#7E7E7E"/>
</radialGradient>
<radialGradient id="paint6_radial_1_2" cx="0" cy="0" r="1" gradientUnits="userSpaceOnUse" gradientTransform="translate(434.074 97.0863) rotate(-135) scale(10.1221)">
<stop stop-color="white"/>
<stop offset="1" stop-color="#7E7E7E"/>
</radialGradient>
<radialGradient id="paint7_radial_1_2" cx="0" cy="0" r="1" gradientUnits="userSpaceOnUse" gradientTransform="translate(59.0978 384.688) rotate(-120) scale(10.1221)">
<stop stop-color="white"/>
<stop offset="1" stop-color="#7E7E7E"/>
</radialGradient>
<radialGradient id="paint8_radial_1_2" cx="0" cy="0" r="1" gradientUnits="userSpaceOnUse" gradientTransform="translate(471.941 146.449) rotate(-120) scale(10.1221 10.1221)">
<stop stop-color="white"/>
<stop offset="1" stop-color="#7E7E7E"/>
</radialGradient>
<radialGradient id="paint9_radial_1_2" cx="0" cy="0" r="1" gradientUnits="userSpaceOnUse" gradientTransform="translate(35.2999 327.207) rotate(-105) scale(10.1221)">
<stop stop-color="white"/>
<stop offset="1" stop-color="#7E7E7E"/>
</radialGradient>
<radialGradient id="paint10_radial_1_2" cx="0" cy="0" r="1" gradientUnits="userSpaceOnUse" gradientTransform="translate(495.736 203.938) rotate(-105) scale(10.1221 10.1221)">
<stop stop-color="white"/>
<stop offset="1" stop-color="#7E7E7E"/>
</radialGradient>
<radialGradient id="paint11_radial_1_2" cx="0" cy="0" r="1" gradientUnits="userSpaceOnUse" gradientTransform="translate(27.1903 265.519) rotate(-90) scale(10.1221 10.1221)">
<stop stop-color="white"/>
<stop offset="1" stop-color="#7E7E7E"/>
</radialGradient>
<radialGradient id="paint12_radial_1_2" cx="0" cy="0" r="1" gradientUnits="userSpaceOnUse" gradientTransform="translate(503.842 265.619) rotate(-90) scale(10.1221 10.1221)">
<stop stop-color="white"/>
<stop offset="1" stop-color="#7E7E7E"/>
</radialGradient>
<radialGradient id="paint13_radial_1_2" cx="0" cy="0" r="1" gradientUnits="userSpaceOnUse" gradientTransform="translate(35.3238 203.84) rotate(-75) scale(10.1221)">
<stop stop-color="white"/>
<stop offset="1" stop-color="#7E7E7E"/>
</radialGradient>
<radialGradient id="paint14_radial_1_2" cx="0" cy="0" r="1" gradientUnits="userSpaceOnUse" gradientTransform="translate(495.709 327.303) rotate(-75) scale(10.1221 10.1221)">
<stop stop-color="white"/>
<stop offset="1" stop-color="#7E7E7E"/>
</radialGradient>
<radialGradient id="paint15_radial_1_2" cx="0" cy="0" r="1" gradientUnits="userSpaceOnUse" gradientTransform="translate(59.1521 146.365) rotate(-60) scale(10.1221 10.1221)">
<stop stop-color="white"/>
<stop offset="1" stop-color="#7E7E7E"/>
</radialGradient>
<radialGradient id="paint16_radial_1_2" cx="0" cy="0" r="1" gradientUnits="userSpaceOnUse" gradientTransform="translate(471.894 384.778) rotate(-60) scale(10.1221 10.1221)">
<stop stop-color="white"/>
<stop offset="1" stop-color="#7E7E7E"/>
</radialGradient>
<radialGradient id="paint17_radial_1_2" cx="0" cy="0" r="1" gradientUnits="userSpaceOnUse" gradientTransform="translate(97.0334 97.0128) rotate(-45) scale(10.1221)">
<stop stop-color="white"/>
<stop offset="1" stop-color="#7E7E7E"/>
</radialGradient>
<radialGradient id="paint18_radial_1_2" cx="0" cy="0" r="1" gradientUnits="userSpaceOnUse" gradientTransform="translate(434.006 434.127) rotate(-45) scale(10.1221)">
<stop stop-color="white"/>
<stop offset="1" stop-color="#7E7E7E"/>
</radialGradient>
<radialGradient id="paint19_radial_1_2" cx="0" cy="0" r="1" gradientUnits="userSpaceOnUse" gradientTransform="translate(146.403 59.1454) rotate(-30) scale(10.1221)">
<stop stop-color="white"/>
<stop offset="1" stop-color="#7E7E7E"/>
</radialGradient>
<radialGradient id="paint20_radial_1_2" cx="0" cy="0" r="1" gradientUnits="userSpaceOnUse" gradientTransform="translate(384.642 471.988) rotate(-30) scale(10.1221 10.1221)">
<stop stop-color="white"/>
<stop offset="1" stop-color="#7E7E7E"/>
</radialGradient>
<radialGradient id="paint21_radial_1_2" cx="0" cy="0" r="1" gradientUnits="userSpaceOnUse" gradientTransform="translate(203.883 35.3533) rotate(-15) scale(10.1221 10.1221)">
<stop stop-color="white"/>
<stop offset="1" stop-color="#7E7E7E"/>
</radialGradient>
<radialGradient id="paint22_radial_1_2" cx="0" cy="0" r="1" gradientUnits="userSpaceOnUse" gradientTransform="translate(327.153 495.789) rotate(-15) scale(10.1221 10.1221)">
<stop stop-color="white"/>
<stop offset="1" stop-color="#7E7E7E"/>
</radialGradient>
<radialGradient id="paint23_radial_1_2" cx="0" cy="0" r="1" gradientUnits="userSpaceOnUse" gradientTransform="translate(265.573 27.2434) scale(10.1221)">
<stop stop-color="white"/>
<stop offset="1" stop-color="#7E7E7E"/>
</radialGradient>
<radialGradient id="paint24_radial_1_2" cx="0" cy="0" r="1" gradientUnits="userSpaceOnUse" gradientTransform="translate(265.471 503.895) scale(10.1221 10.1221)">
<stop stop-color="white"/>
<stop offset="1" stop-color="#7E7E7E"/>
</radialGradient>
<radialGradient id="paint25_radial_1_2" cx="0" cy="0" r="1" gradientUnits="userSpaceOnUse" gradientTransform="translate(327.258 35.3778) rotate(15) scale(10.1221 10.1221)">
<stop stop-color="white"/>
<stop offset="1" stop-color="#7E7E7E"/>
</radialGradient>
<radialGradient id="paint26_radial_1_2" cx="0" cy="0" r="1" gradientUnits="userSpaceOnUse" gradientTransform="translate(203.793 495.762) rotate(15) scale(10.1221 10.1221)">
<stop stop-color="white"/>
<stop offset="1" stop-color="#7E7E7E"/>
</radialGradient>
<radialGradient id="paint27_radial_1_2" cx="0" cy="0" r="1" gradientUnits="userSpaceOnUse" gradientTransform="translate(384.733 59.1986) rotate(30) scale(10.1221 10.1221)">
<stop stop-color="white"/>
<stop offset="1" stop-color="#7E7E7E"/>
</radialGradient>
<radialGradient id="paint28_radial_1_2" cx="0" cy="0" r="1" gradientUnits="userSpaceOnUse" gradientTransform="translate(146.32 471.941) rotate(30) scale(10.1221 10.1221)">
<stop stop-color="white"/>
<stop offset="1" stop-color="#7E7E7E"/>
</radialGradient>
<radialGradient id="paint29_radial_1_2" cx="0" cy="0" r="1" gradientUnits="userSpaceOnUse" gradientTransform="translate(434.078 97.0856) rotate(45) scale(10.1221)">
<stop stop-color="white"/>
<stop offset="1" stop-color="#7E7E7E"/>
</radialGradient>
<radialGradient id="paint30_radial_1_2" cx="0" cy="0" r="1" gradientUnits="userSpaceOnUse" gradientTransform="translate(96.9643 434.058) rotate(45) scale(10.1221)">
<stop stop-color="white"/>
<stop offset="1" stop-color="#7E7E7E"/>
</radialGradient>
<radialGradient id="paint31_radial_1_2" cx="0" cy="0" r="1" gradientUnits="userSpaceOnUse" gradientTransform="translate(471.946 146.451) rotate(60) scale(10.1221 10.1221)">
<stop stop-color="white"/>
<stop offset="1" stop-color="#7E7E7E"/>
</radialGradient>
<radialGradient id="paint32_radial_1_2" cx="0" cy="0" r="1" gradientUnits="userSpaceOnUse" gradientTransform="translate(59.1028 384.689) rotate(60) scale(10.1221)">
<stop stop-color="white"/>
<stop offset="1" stop-color="#7E7E7E"/>
</radialGradient>
<radialGradient id="paint33_radial_1_2" cx="0" cy="0" r="1" gradientUnits="userSpaceOnUse" gradientTransform="translate(495.744 203.937) rotate(75) scale(10.1221 10.1221)">
<stop stop-color="white"/>
<stop offset="1" stop-color="#7E7E7E"/>
</radialGradient>
<radialGradient id="paint34_radial_1_2" cx="0" cy="0" r="1" gradientUnits="userSpaceOnUse" gradientTransform="translate(35.3074 327.207) rotate(75) scale(10.1221)">
<stop stop-color="white"/>
<stop offset="1" stop-color="#7E7E7E"/>
</radialGradient>
<radialGradient id="paint35_radial_1_2" cx="0" cy="0" r="1" gradientUnits="userSpaceOnUse" gradientTransform="translate(503.848 265.625) rotate(90) scale(10.1221 10.1221)">
<stop stop-color="white"/>
<stop offset="1" stop-color="#7E7E7E"/>
</radialGradient>
<radialGradient id="paint36_radial_1_2" cx="0" cy="0" r="1" gradientUnits="userSpaceOnUse" gradientTransform="translate(27.1959 265.525) rotate(90) scale(10.1221 10.1221)">
<stop stop-color="white"/>
<stop offset="1" stop-color="#7E7E7E"/>
</radialGradient>
</defs>
</svg>
